<svg xmlns="http://www.w3.org/2000/svg" viewBox="0 0 1300 1200" width="1300" height="1200">
  <defs>
    <!-- 背景渐变 -->
    <linearGradient id="bgGrad" x1="0" y1="0" x2="0" y2="1">
      <stop offset="0%" stop-color="#f0f4f8"/>
      <stop offset="100%" stop-color="#e2e8f0"/>
    </linearGradient>

    <!-- 表标题栏渐变 -->
    <linearGradient id="titleGrad1" x1="0" y1="0" x2="0" y2="1">
      <stop offset="0%" stop-color="#4a6fa5"/>
      <stop offset="100%" stop-color="#3b5998"/>
    </linearGradient>
    <linearGradient id="titleGrad2" x1="0" y1="0" x2="0" y2="1">
      <stop offset="0%" stop-color="#5b8cb8"/>
      <stop offset="100%" stop-color="#4a7aac"/>
    </linearGradient>
    <linearGradient id="titleGrad3" x1="0" y1="0" x2="0" y2="1">
      <stop offset="0%" stop-color="#6b9fc8"/>
      <stop offset="100%" stop-color="#5a8fbe"/>
    </linearGradient>

    <!-- 箭头定义 -->
    <marker id="arrowRight" markerWidth="10" markerHeight="7" refX="10" refY="3.5" orient="auto">
      <polygon points="0 0, 10 3.5, 0 7" fill="#7a8ea8"/>
    </marker>
    <marker id="arrowDown" markerWidth="7" markerHeight="10" refX="3.5" refY="10" orient="auto">
      <polygon points="0 0, 7 0, 3.5 10" fill="#7a8ea8"/>
    </marker>
    <marker id="arrowUp" markerWidth="7" markerHeight="10" refX="3.5" refY="0" orient="auto">
      <polygon points="0 10, 3.5 0, 7 10" fill="#7a8ea8"/>
    </marker>

    <!-- 阴影滤镜 -->
    <filter id="shadow" x="-5%" y="-5%" width="115%" height="115%">
      <feDropShadow dx="2" dy="3" stdDeviation="3" flood-color="#94a3b8" flood-opacity="0.3"/>
    </filter>

    <!-- PK 标记样式 -->
    <style>
      .title-text { font-family: "Microsoft YaHei", "PingFang SC", sans-serif; font-size: 15px; font-weight: bold; fill: #ffffff; }
      .header-text { font-family: "Microsoft YaHei", "PingFang SC", sans-serif; font-size: 12px; font-weight: bold; fill: #64748b; }
      .field-text { font-family: "Consolas", "Courier New", monospace; font-size: 13px; fill: #334155; }
      .pk-badge { fill: #e74c3c; font-family: sans-serif; font-size: 10px; font-weight: bold; }
      .uk-badge { fill: #f39c12; font-family: sans-serif; font-size: 10px; font-weight: bold; }
      .fk-badge { fill: #2e86de; font-family: sans-serif; font-size: 10px; font-weight: bold; }
      .conn-label { font-family: "Microsoft YaHei", "PingFang SC", sans-serif; font-size: 11px; fill: #7a8ea8; font-style: italic; }
      .one-label { font-family: sans-serif; font-size: 11px; fill: #7a8ea8; font-weight: bold; }
      .many-label { font-family: sans-serif; font-size: 14px; fill: #7a8ea8; font-weight: bold; }
      .legend-text { font-family: "Microsoft YaHei", "PingFang SC", sans-serif; font-size: 13px; fill: #475569; }
      .title-text-sub { font-family: "Microsoft YaHei", "PingFang SC", sans-serif; font-size: 11px; fill: #cbd5e1; }
      .graph-title { font-family: "Microsoft YaHei", "PingFang SC", sans-serif; font-size: 24px; font-weight: bold; fill: #1e293b; }
      .graph-subtitle { font-family: "Microsoft YaHei", "PingFang SC", sans-serif; font-size: 14px; fill: #94a3b8; }
    </style>
  </defs>

  <!-- 背景 -->
  <rect x="0" y="0" width="1300" height="1200" fill="url(#bgGrad)" rx="8"/>

  <!-- 标题 -->
  <text x="650" y="45" text-anchor="middle" class="graph-title">数据库 E-R 关系图</text>
  <text x="650" y="68" text-anchor="middle" class="graph-subtitle">Database Entity-Relationship Diagram</text>

  <!-- ==================== 连接线 ==================== -->

  <!-- 连接1: user → operation_log (user_id) -->
  <!-- 从user右上角到operation_log底部，在y=162处左入 -->
  <line x1="400" y1="290" x2="440" y2="290" stroke="#7a8ea8" stroke-width="1.5" stroke-dasharray="none"/>
  <line x1="440" y1="290" x2="440" y2="162" stroke="#7a8ea8" stroke-width="1.5"/>
  <line x1="440" y1="162" x2="480" y2="162" stroke="#7a8ea8" stroke-width="1.5" marker-end="url(#arrowRight)"/>
  <text x="442" y="155" class="conn-label">user_id</text>

  <!-- 连接2: user → announcement (publisher_id) -->
  <line x1="400" y1="518" x2="480" y2="518" stroke="#7a8ea8" stroke-width="1.5" marker-end="url(#arrowRight)"/>
  <text x="410" y="510" class="conn-label">publisher_id</text>

  <!-- 连接3: user → lost_found (user_id) -->
  <line x1="240" y1="620" x2="240" y2="980" stroke="#7a8ea8" stroke-width="1.5"/>
  <line x1="240" y1="980" x2="480" y2="980" stroke="#7a8ea8" stroke-width="1.5" marker-end="url(#arrowRight)"/>
  <text x="242" y="972" class="conn-label">user_id</text>

  <!-- 连接4: user → lost_found (auditor_id) -->
  <line x1="270" y1="620" x2="270" y2="1002" stroke="#7a8ea8" stroke-width="1.5"/>
  <line x1="270" y1="1002" x2="480" y2="1002" stroke="#7a8ea8" stroke-width="1.5" marker-end="url(#arrowRight)"/>
  <text x="272" y="994" class="conn-label">auditor_id</text>

  <!-- 连接5: user → repair_order (user_id) -->
  <!-- 穿过gap 330-420 -->
  <line x1="400" y1="426" x2="400" y2="400" stroke="#7a8ea8" stroke-width="1.5"/>
  <line x1="400" y1="400" x2="900" y2="400" stroke="#7a8ea8" stroke-width="1.5"/>
  <line x1="900" y1="400" x2="900" y2="426" stroke="#7a8ea8" stroke-width="1.5" marker-end="url(#arrowRight)"/>
  <text x="635" y="393" class="conn-label">user_id</text>

  <!-- 连接6: user → repair_order (handler_id) -->
  <line x1="400" y1="448" x2="400" y2="400" stroke="#7a8ea8" stroke-width="1.5"/>
  <line x1="900" y1="400" x2="900" y2="448" stroke="#7a8ea8" stroke-width="1.5" marker-end="url(#arrowRight)"/>
  <text x="902" y="440" class="conn-label">handler_id</text>

  <!-- 连接7: repair_order → repair_log (order_id) -->
  <line x1="1060" y1="570" x2="1060" y2="620" stroke="#7a8ea8" stroke-width="1.5" marker-end="url(#arrowDown)"/>
  <text x="1068" y="598" class="conn-label">order_id</text>

  <!-- 连接8: user → repair_log (operator_id) -->
  <line x1="300" y1="620" x2="300" y2="720" stroke="#7a8ea8" stroke-width="1.5"/>
  <line x1="300" y1="720" x2="900" y2="720" stroke="#7a8ea8" stroke-width="1.5"/>
  <line x1="900" y1="720" x2="900" y2="714" stroke="#7a8ea8" stroke-width="1.5" marker-end="url(#arrowRight)"/>
  <text x="580" y="713" class="conn-label">operator_id</text>

  <!-- 一对多标记：在连接线上标注 -->
  <!-- user侧为"1"，子表侧为"多"-->

  <!-- 连接1 标记 -->
  <text x="435" y="275" class="many-label">1</text>
  <text x="472" y="155" class="many-label">多</text>

  <!-- 连接2 标记 -->
  <text x="435" y="530" class="many-label">1</text>
  <text x="470" y="530" class="many-label">多</text>

  <!-- 连接3 标记 -->
  <text x="230" y="975" class="many-label">1</text>
  <text x="470" y="975" class="many-label">多</text>

  <!-- 连接4 标记 -->
  <text x="260" y="997" class="many-label">1</text>
  <text x="470" y="997" class="many-label">多</text>

  <!-- 连接5 标记 -->
  <text x="430" y="410" class="many-label">1</text>
  <text x="890" y="410" class="many-label">多</text>

  <!-- 连接6 标记 -->
  <text x="430" y="410" class="many-label" visibility="hidden"/>
  <text x="890" y="443" class="many-label">多</text>

  <!-- 连接7 标记 -->
  <text x="1050" y="590" class="many-label">1</text>
  <text x="1050" y="615" class="many-label">多</text>

  <!-- 连接8 标记 -->
  <text x="290" y="715" class="many-label">1</text>
  <text x="890" y="715" class="many-label">多</text>


  <!-- ==================== 用户表 (user) ==================== -->
  <g filter="url(#shadow)">
    <rect x="80" y="280" width="320" height="340" rx="6" fill="#ffffff" stroke="#cbd5e1" stroke-width="1"/>
    <rect x="80" y="280" width="320" height="36" rx="6" fill="url(#titleGrad1)"/>
    <rect x="80" y="310" width="320" height="6" fill="url(#titleGrad1)"/>
    <text x="240" y="303" text-anchor="middle" class="title-text">👤 用户表 (user)</text>
    <text x="240" y="319" text-anchor="middle" class="title-text-sub">用户账户与基本信息</text>

    <!-- 表头 -->
    <rect x="80" y="316" width="320" height="24" fill="#f8fafc"/>
    <line x1="80" y1="340" x2="400" y2="340" stroke="#e2e8f0" stroke-width="1"/>
    <text x="100" y="332" class="header-text">字段名</text>

    <!-- 字段行 (交替背景色) -->
    <!-- id -->
    <rect x="80" y="340" width="320" height="24" fill="#ffffff"/>
    <text x="100" y="357" class="field-text">id</text>
    <text x="370" y="357" text-anchor="end" class="pk-badge">PK</text>
    <line x1="80" y1="364" x2="400" y2="364" stroke="#f1f5f9" stroke-width="1"/>

    <!-- open_id -->
    <rect x="80" y="364" width="320" height="24" fill="#f8fafc"/>
    <text x="100" y="381" class="field-text">open_id</text>
    <text x="370" y="381" text-anchor="end" class="uk-badge">UK</text>
    <line x1="80" y1="388" x2="400" y2="388" stroke="#f1f5f9" stroke-width="1"/>

    <!-- password -->
    <rect x="80" y="388" width="320" height="24" fill="#ffffff"/>
    <text x="100" y="405" class="field-text">password</text>
    <line x1="80" y1="412" x2="400" y2="412" stroke="#f1f5f9" stroke-width="1"/>

    <!-- nickname -->
    <rect x="80" y="412" width="320" height="24" fill="#f8fafc"/>
    <text x="100" y="429" class="field-text">nickname</text>
    <line x1="80" y1="436" x2="400" y2="436" stroke="#f1f5f9" stroke-width="1"/>

    <!-- avatar -->
    <rect x="80" y="436" width="320" height="24" fill="#ffffff"/>
    <text x="100" y="453" class="field-text">avatar</text>
    <line x1="80" y1="460" x2="400" y2="460" stroke="#f1f5f9" stroke-width="1"/>

    <!-- student_no -->
    <rect x="80" y="460" width="320" height="24" fill="#f8fafc"/>
    <text x="100" y="477" class="field-text">student_no</text>
    <line x1="80" y1="484" x2="400" y2="484" stroke="#f1f5f9" stroke-width="1"/>

    <!-- phone -->
    <rect x="80" y="484" width="320" height="24" fill="#ffffff"/>
    <text x="100" y="501" class="field-text">phone</text>
    <line x1="80" y1="508" x2="400" y2="508" stroke="#f1f5f9" stroke-width="1"/>

    <!-- role -->
    <rect x="80" y="508" width="320" height="24" fill="#f8fafc"/>
    <text x="100" y="525" class="field-text">role</text>
    <line x1="80" y1="532" x2="400" y2="532" stroke="#f1f5f9" stroke-width="1"/>

    <!-- status -->
    <rect x="80" y="532" width="320" height="24" fill="#ffffff"/>
    <text x="100" y="549" class="field-text">status</text>
    <line x1="80" y1="556" x2="400" y2="556" stroke="#f1f5f9" stroke-width="1"/>

    <!-- created_at -->
    <rect x="80" y="556" width="320" height="24" fill="#f8fafc"/>
    <text x="100" y="573" class="field-text">created_at</text>
    <line x1="80" y1="580" x2="400" y2="580" stroke="#f1f5f9" stroke-width="1"/>

    <!-- updated_at -->
    <rect x="80" y="580" width="320" height="24" fill="#ffffff"/>
    <text x="100" y="597" class="field-text">updated_at</text>
    <line x1="80" y1="604" x2="400" y2="604" stroke="#f1f5f9" stroke-width="1"/>

    <!-- is_deleted -->
    <rect x="80" y="604" width="320" height="16" fill="#f8fafc"/>
    <text x="100" y="616" class="field-text">is_deleted</text>
  </g>

  <!-- ==================== 操作日志表 (operation_log) ==================== -->
  <g filter="url(#shadow)">
    <rect x="480" y="80" width="280" height="250" rx="6" fill="#ffffff" stroke="#cbd5e1" stroke-width="1"/>
    <rect x="480" y="80" width="280" height="36" rx="6" fill="url(#titleGrad2)"/>
    <rect x="480" y="110" width="280" height="6" fill="url(#titleGrad2)"/>
    <text x="620" y="103" text-anchor="middle" class="title-text">📋 操作日志表 (operation_log)</text>

    <rect x="480" y="116" width="280" height="24" fill="#f8fafc"/>
    <line x1="480" y1="140" x2="760" y2="140" stroke="#e2e8f0" stroke-width="1"/>
    <text x="500" y="132" class="header-text">字段名</text>

    <rect x="480" y="140" width="280" height="24" fill="#ffffff"/>
    <text x="500" y="157" class="field-text">id</text>
    <text x="740" y="157" text-anchor="end" class="pk-badge">PK</text>
    <line x1="480" y1="164" x2="760" y2="164" stroke="#f1f5f9" stroke-width="1"/>

    <rect x="480" y="164" width="280" height="24" fill="#f8fafc"/>
    <text x="500" y="181" class="field-text">user_id</text>
    <text x="740" y="181" text-anchor="end" class="fk-badge">FK</text>
    <line x1="480" y1="188" x2="760" y2="188" stroke="#f1f5f9" stroke-width="1"/>

    <rect x="480" y="188" width="280" height="24" fill="#ffffff"/>
    <text x="500" y="205" class="field-text">module</text>
    <line x1="480" y1="212" x2="760" y2="212" stroke="#f1f5f9" stroke-width="1"/>

    <rect x="480" y="212" width="280" height="24" fill="#f8fafc"/>
    <text x="500" y="229" class="field-text">action</text>
    <line x1="480" y1="236" x2="760" y2="236" stroke="#f1f5f9" stroke-width="1"/>

    <rect x="480" y="236" width="280" height="24" fill="#ffffff"/>
    <text x="500" y="253" class="field-text">target_id</text>
    <line x1="480" y1="260" x2="760" y2="260" stroke="#f1f5f9" stroke-width="1"/>

    <rect x="480" y="260" width="280" height="24" fill="#f8fafc"/>
    <text x="500" y="277" class="field-text">description</text>
    <line x1="480" y1="284" x2="760" y2="284" stroke="#f1f5f9" stroke-width="1"/>

    <rect x="480" y="284" width="280" height="24" fill="#ffffff"/>
    <text x="500" y="301" class="field-text">ip_address</text>
    <line x1="480" y1="308" x2="760" y2="308" stroke="#f1f5f9" stroke-width="1"/>

    <rect x="480" y="308" width="280" height="22" fill="#f8fafc"/>
    <text x="500" y="324" class="field-text">created_at</text>
  </g>

  <!-- ==================== 公告表 (announcement) ==================== -->
  <g filter="url(#shadow)">
    <rect x="480" y="420" width="280" height="290" rx="6" fill="#ffffff" stroke="#cbd5e1" stroke-width="1"/>
    <rect x="480" y="420" width="280" height="36" rx="6" fill="url(#titleGrad3)"/>
    <rect x="480" y="450" width="280" height="6" fill="url(#titleGrad3)"/>
    <text x="620" y="443" text-anchor="middle" class="title-text">📢 公告表 (announcement)</text>

    <rect x="480" y="456" width="280" height="24" fill="#f8fafc"/>
    <line x1="480" y1="480" x2="760" y2="480" stroke="#e2e8f0" stroke-width="1"/>
    <text x="500" y="472" class="header-text">字段名</text>

    <rect x="480" y="480" width="280" height="24" fill="#ffffff"/>
    <text x="500" y="497" class="field-text">id</text>
    <text x="740" y="497" text-anchor="end" class="pk-badge">PK</text>
    <line x1="480" y1="504" x2="760" y2="504" stroke="#f1f5f9" stroke-width="1"/>

    <rect x="480" y="504" width="280" height="24" fill="#f8fafc"/>
    <text x="500" y="521" class="field-text">title</text>
    <line x1="480" y1="528" x2="760" y2="528" stroke="#f1f5f9" stroke-width="1"/>

    <rect x="480" y="528" width="280" height="24" fill="#ffffff"/>
    <text x="500" y="545" class="field-text">content</text>
    <line x1="480" y1="552" x2="760" y2="552" stroke="#f1f5f9" stroke-width="1"/>

    <rect x="480" y="552" width="280" height="24" fill="#f8fafc"/>
    <text x="500" y="569" class="field-text">category</text>
    <line x1="480" y1="576" x2="760" y2="576" stroke="#f1f5f9" stroke-width="1"/>

    <rect x="480" y="576" width="280" height="24" fill="#ffffff"/>
    <text x="500" y="593" class="field-text">publisher_id</text>
    <text x="740" y="593" text-anchor="end" class="fk-badge">FK</text>
    <line x1="480" y1="600" x2="760" y2="600" stroke="#f1f5f9" stroke-width="1"/>

    <rect x="480" y="600" width="280" height="24" fill="#f8fafc"/>
    <text x="500" y="617" class="field-text">view_count</text>
    <line x1="480" y1="624" x2="760" y2="624" stroke="#f1f5f9" stroke-width="1"/>

    <rect x="480" y="624" width="280" height="24" fill="#ffffff"/>
    <text x="500" y="641" class="field-text">status</text>
    <line x1="480" y1="648" x2="760" y2="648" stroke="#f1f5f9" stroke-width="1"/>

    <rect x="480" y="648" width="280" height="24" fill="#f8fafc"/>
    <text x="500" y="665" class="field-text">created_at</text>
    <line x1="480" y1="672" x2="760" y2="672" stroke="#f1f5f9" stroke-width="1"/>

    <rect x="480" y="672" width="280" height="24" fill="#ffffff"/>
    <text x="500" y="689" class="field-text">updated_at</text>
    <line x1="480" y1="696" x2="760" y2="696" stroke="#f1f5f9" stroke-width="1"/>

    <rect x="480" y="696" width="280" height="14" fill="#f8fafc"/>
    <text x="500" y="707" class="field-text">is_deleted</text>
  </g>

  <!-- ==================== 失物信息表 (lost_found) ==================== -->
  <g filter="url(#shadow)">
    <rect x="480" y="760" width="280" height="400" rx="6" fill="#ffffff" stroke="#cbd5e1" stroke-width="1"/>
    <rect x="480" y="760" width="280" height="36" rx="6" fill="url(#titleGrad1)"/>
    <rect x="480" y="790" width="280" height="6" fill="url(#titleGrad1)"/>
    <text x="620" y="783" text-anchor="middle" class="title-text">🔍 失物信息表 (lost_found)</text>

    <rect x="480" y="796" width="280" height="24" fill="#f8fafc"/>
    <line x1="480" y1="820" x2="760" y2="820" stroke="#e2e8f0" stroke-width="1"/>
    <text x="500" y="812" class="header-text">字段名</text>

    <rect x="480" y="820" width="280" height="24" fill="#ffffff"/>
    <text x="500" y="837" class="field-text">id</text>
    <text x="740" y="837" text-anchor="end" class="pk-badge">PK</text>
    <line x1="480" y1="844" x2="760" y2="844" stroke="#f1f5f9" stroke-width="1"/>

    <rect x="480" y="844" width="280" height="24" fill="#f8fafc"/>
    <text x="500" y="861" class="field-text">type</text>
    <line x1="480" y1="868" x2="760" y2="868" stroke="#f1f5f9" stroke-width="1"/>

    <rect x="480" y="868" width="280" height="24" fill="#ffffff"/>
    <text x="500" y="885" class="field-text">item_name</text>
    <line x1="480" y1="892" x2="760" y2="892" stroke="#f1f5f9" stroke-width="1"/>

    <rect x="480" y="892" width="280" height="24" fill="#f8fafc"/>
    <text x="500" y="909" class="field-text">category</text>
    <line x1="480" y1="916" x2="760" y2="916" stroke="#f1f5f9" stroke-width="1"/>

    <rect x="480" y="916" width="280" height="24" fill="#ffffff"/>
    <text x="500" y="933" class="field-text">images</text>
    <line x1="480" y1="940" x2="760" y2="940" stroke="#f1f5f9" stroke-width="1"/>

    <rect x="480" y="940" width="280" height="24" fill="#f8fafc"/>
    <text x="500" y="957" class="field-text">description</text>
    <line x1="480" y1="964" x2="760" y2="964" stroke="#f1f5f9" stroke-width="1"/>

    <rect x="480" y="964" width="280" height="24" fill="#ffffff"/>
    <text x="500" y="981" class="field-text">location</text>
    <line x1="480" y1="988" x2="760" y2="988" stroke="#f1f5f9" stroke-width="1"/>

    <rect x="480" y="988" width="280" height="24" fill="#f8fafc"/>
    <text x="500" y="1005" class="field-text">contact_person</text>
    <line x1="480" y1="1012" x2="760" y2="1012" stroke="#f1f5f9" stroke-width="1"/>

    <rect x="480" y="1012" width="280" height="24" fill="#ffffff"/>
    <text x="500" y="1029" class="field-text">contact_phone</text>
    <line x1="480" y1="1036" x2="760" y2="1036" stroke="#f1f5f9" stroke-width="1"/>

    <rect x="480" y="1036" width="280" height="24" fill="#f8fafc"/>
    <text x="500" y="1053" class="field-text">status</text>
    <line x1="480" y1="1060" x2="760" y2="1060" stroke="#f1f5f9" stroke-width="1"/>

    <rect x="480" y="1060" width="280" height="24" fill="#ffffff"/>
    <text x="500" y="1077" class="field-text">user_id</text>
    <text x="740" y="1077" text-anchor="end" class="fk-badge">FK</text>
    <line x1="480" y1="1084" x2="760" y2="1084" stroke="#f1f5f9" stroke-width="1"/>

    <rect x="480" y="1084" width="280" height="24" fill="#f8fafc"/>
    <text x="500" y="1101" class="field-text">auditor_id</text>
    <text x="740" y="1101" text-anchor="end" class="fk-badge">FK</text>
    <line x1="480" y1="1108" x2="760" y2="1108" stroke="#f1f5f9" stroke-width="1"/>

    <rect x="480" y="1108" width="280" height="24" fill="#ffffff"/>
    <text x="500" y="1125" class="field-text">audit_time</text>
    <line x1="480" y1="1132" x2="760" y2="1132" stroke="#f1f5f9" stroke-width="1"/>

    <rect x="480" y="1132" width="280" height="24" fill="#f8fafc"/>
    <text x="500" y="1149" class="field-text">reject_reason</text>
    <line x1="480" y1="1156" x2="760" y2="1156" stroke="#f1f5f9" stroke-width="1"/>

    <rect x="480" y="1156" width="280" height="4" fill="#ffffff"/>
  </g>

  <!-- ==================== 报修工单表 (repair_order) ==================== -->
  <g filter="url(#shadow)">
    <rect x="900" y="80" width="320" height="490" rx="6" fill="#ffffff" stroke="#cbd5e1" stroke-width="1"/>
    <rect x="900" y="80" width="320" height="36" rx="6" fill="url(#titleGrad2)"/>
    <rect x="900" y="110" width="320" height="6" fill="url(#titleGrad2)"/>
    <text x="1060" y="103" text-anchor="middle" class="title-text">🔧 报修工单表 (repair_order)</text>

    <rect x="900" y="116" width="320" height="24" fill="#f8fafc"/>
    <line x1="900" y1="140" x2="1220" y2="140" stroke="#e2e8f0" stroke-width="1"/>
    <text x="920" y="132" class="header-text">字段名</text>

    <rect x="900" y="140" width="320" height="24" fill="#ffffff"/>
    <text x="920" y="157" class="field-text">id</text>
    <text x="1200" y="157" text-anchor="end" class="pk-badge">PK</text>
    <line x1="900" y1="164" x2="1220" y2="164" stroke="#f1f5f9" stroke-width="1"/>

    <rect x="900" y="164" width="320" height="24" fill="#f8fafc"/>
    <text x="920" y="181" class="field-text">order_no</text>
    <text x="1200" y="181" text-anchor="end" class="uk-badge">UK</text>
    <line x1="900" y1="188" x2="1220" y2="188" stroke="#f1f5f9" stroke-width="1"/>

    <rect x="900" y="188" width="320" height="24" fill="#ffffff"/>
    <text x="920" y="205" class="field-text">repair_type</text>
    <line x1="900" y1="212" x2="1220" y2="212" stroke="#f1f5f9" stroke-width="1"/>

    <rect x="900" y="212" width="320" height="24" fill="#f8fafc"/>
    <text x="920" y="229" class="field-text">campus</text>
    <line x1="900" y1="236" x2="1220" y2="236" stroke="#f1f5f9" stroke-width="1"/>

    <rect x="900" y="236" width="320" height="24" fill="#ffffff"/>
    <text x="920" y="253" class="field-text">building</text>
    <line x1="900" y1="260" x2="1220" y2="260" stroke="#f1f5f9" stroke-width="1"/>

    <rect x="900" y="260" width="320" height="24" fill="#f8fafc"/>
    <text x="920" y="277" class="field-text">room</text>
    <line x1="900" y1="284" x2="1220" y2="284" stroke="#f1f5f9" stroke-width="1"/>

    <rect x="900" y="284" width="320" height="24" fill="#ffffff"/>
    <text x="920" y="301" class="field-text">description</text>
    <line x1="900" y1="308" x2="1220" y2="308" stroke="#f1f5f9" stroke-width="1"/>

    <rect x="900" y="308" width="320" height="24" fill="#f8fafc"/>
    <text x="920" y="325" class="field-text">images</text>
    <line x1="900" y1="332" x2="1220" y2="332" stroke="#f1f5f9" stroke-width="1"/>

    <rect x="900" y="332" width="320" height="24" fill="#ffffff"/>
    <text x="920" y="349" class="field-text">contact_person</text>
    <line x1="900" y1="356" x2="1220" y2="356" stroke="#f1f5f9" stroke-width="1"/>

    <rect x="900" y="356" width="320" height="24" fill="#f8fafc"/>
    <text x="920" y="373" class="field-text">contact_phone</text>
    <line x1="900" y1="380" x2="1220" y2="380" stroke="#f1f5f9" stroke-width="1"/>

    <rect x="900" y="380" width="320" height="24" fill="#ffffff"/>
    <text x="920" y="397" class="field-text">status</text>
    <line x1="900" y1="404" x2="1220" y2="404" stroke="#f1f5f9" stroke-width="1"/>

    <rect x="900" y="404" width="320" height="24" fill="#f8fafc"/>
    <text x="920" y="421" class="field-text">reject_reason</text>
    <line x1="900" y1="428" x2="1220" y2="428" stroke="#f1f5f9" stroke-width="1"/>

    <rect x="900" y="428" width="320" height="24" fill="#ffffff"/>
    <text x="920" y="445" class="field-text">handle_result</text>
    <line x1="900" y1="452" x2="1220" y2="452" stroke="#f1f5f9" stroke-width="1"/>

    <rect x="900" y="452" width="320" height="24" fill="#f8fafc"/>
    <text x="920" y="469" class="field-text">user_id</text>
    <text x="1200" y="469" text-anchor="end" class="fk-badge">FK</text>
    <line x1="900" y1="476" x2="1220" y2="476" stroke="#f1f5f9" stroke-width="1"/>

    <rect x="900" y="476" width="320" height="24" fill="#ffffff"/>
    <text x="920" y="493" class="field-text">handler_id</text>
    <text x="1200" y="493" text-anchor="end" class="fk-badge">FK</text>
    <line x1="900" y1="500" x2="1220" y2="500" stroke="#f1f5f9" stroke-width="1"/>

    <rect x="900" y="500" width="320" height="24" fill="#f8fafc"/>
    <text x="920" y="517" class="field-text">estimated_complete_time</text>
    <line x1="900" y1="524" x2="1220" y2="524" stroke="#f1f5f9" stroke-width="1"/>

    <rect x="900" y="524" width="320" height="24" fill="#ffffff"/>
    <text x="920" y="541" class="field-text">created_at</text>
    <line x1="900" y1="548" x2="1220" y2="548" stroke="#f1f5f9" stroke-width="1"/>

    <rect x="900" y="548" width="320" height="24" fill="#f8fafc"/>
    <text x="920" y="565" class="field-text">handle_time</text>
    <line x1="900" y1="572" x2="1220" y2="572" stroke="#f1f5f9" stroke-width="1"/>

    <rect x="900" y="572" width="320" height="24" fill="#ffffff"/>
    <text x="920" y="589" class="field-text">complete_time</text>
    <line x1="900" y1="596" x2="1220" y2="596" stroke="#f1f5f9" stroke-width="1"/>

    <rect x="900" y="596" width="320" height="24" fill="#f8fafc"/>
    <text x="920" y="613" class="field-text">updated_at</text>
    <line x1="900" y1="620" x2="1220" y2="620" stroke="#f1f5f9" stroke-width="1"/>

    <rect x="900" y="620" width="320" height="18" fill="#ffffff"/>
    <text x="920" y="634" class="field-text">is_deleted</text>
  </g>

  <!-- ==================== 工单处理记录表 (repair_log) ==================== -->
  <g filter="url(#shadow)">
    <rect x="900" y="620" width="280" height="250" rx="6" fill="#ffffff" stroke="#cbd5e1" stroke-width="1"/>
    <rect x="900" y="620" width="280" height="36" rx="6" fill="url(#titleGrad3)"/>
    <rect x="900" y="650" width="280" height="6" fill="url(#titleGrad3)"/>
    <text x="1040" y="643" text-anchor="middle" class="title-text">📝 工单处理记录表 (repair_log)</text>

    <rect x="900" y="656" width="280" height="24" fill="#f8fafc"/>
    <line x1="900" y1="680" x2="1180" y2="680" stroke="#e2e8f0" stroke-width="1"/>
    <text x="920" y="672" class="header-text">字段名</text>

    <rect x="900" y="680" width="280" height="24" fill="#ffffff"/>
    <text x="920" y="697" class="field-text">id</text>
    <text x="1160" y="697" text-anchor="end" class="pk-badge">PK</text>
    <line x1="900" y1="704" x2="1180" y2="704" stroke="#f1f5f9" stroke-width="1"/>

    <rect x="900" y="704" width="280" height="24" fill="#f8fafc"/>
    <text x="920" y="721" class="field-text">order_id</text>
    <text x="1160" y="721" text-anchor="end" class="fk-badge">FK</text>
    <line x1="900" y1="728" x2="1180" y2="728" stroke="#f1f5f9" stroke-width="1"/>

    <rect x="900" y="728" width="280" height="24" fill="#ffffff"/>
    <text x="920" y="745" class="field-text">operator_id</text>
    <text x="1160" y="745" text-anchor="end" class="fk-badge">FK</text>
    <line x1="900" y1="752" x2="1180" y2="752" stroke="#f1f5f9" stroke-width="1"/>

    <rect x="900" y="752" width="280" height="24" fill="#f8fafc"/>
    <text x="920" y="769" class="field-text">action</text>
    <line x1="900" y1="776" x2="1180" y2="776" stroke="#f1f5f9" stroke-width="1"/>

    <rect x="900" y="776" width="280" height="24" fill="#ffffff"/>
    <text x="920" y="793" class="field-text">from_status</text>
    <line x1="900" y1="800" x2="1180" y2="800" stroke="#f1f5f9" stroke-width="1"/>

    <rect x="900" y="800" width="280" height="24" fill="#f8fafc"/>
    <text x="920" y="817" class="field-text">to_status</text>
    <line x1="900" y1="824" x2="1180" y2="824" stroke="#f1f5f9" stroke-width="1"/>

    <rect x="900" y="824" width="280" height="24" fill="#ffffff"/>
    <text x="920" y="841" class="field-text">remark</text>
    <line x1="900" y1="848" x2="1180" y2="848" stroke="#f1f5f9" stroke-width="1"/>

    <rect x="900" y="848" width="280" height="22" fill="#f8fafc"/>
    <text x="920" y="864" class="field-text">created_at</text>
  </g>

  <!-- ==================== 系统配置表 (system_config) ==================== -->
  <g filter="url(#shadow)">
    <rect x="900" y="920" width="280" height="208" rx="6" fill="#ffffff" stroke="#cbd5e1" stroke-width="1"/>
    <rect x="900" y="920" width="280" height="36" rx="6" fill="url(#titleGrad1)"/>
    <rect x="900" y="950" width="280" height="6" fill="url(#titleGrad1)"/>
    <text x="1040" y="943" text-anchor="middle" class="title-text">⚙️ 系统配置表 (system_config)</text>
    <text x="1040" y="958" text-anchor="middle" class="title-text-sub">独立表，无外键关联</text>

    <rect x="900" y="956" width="280" height="24" fill="#f8fafc"/>
    <line x1="900" y1="980" x2="1180" y2="980" stroke="#e2e8f0" stroke-width="1"/>
    <text x="920" y="972" class="header-text">字段名</text>

    <rect x="900" y="980" width="280" height="24" fill="#ffffff"/>
    <text x="920" y="997" class="field-text">id</text>
    <text x="1160" y="997" text-anchor="end" class="pk-badge">PK</text>
    <line x1="900" y1="1004" x2="1180" y2="1004" stroke="#f1f5f9" stroke-width="1"/>

    <rect x="900" y="1004" width="280" height="24" fill="#f8fafc"/>
    <text x="920" y="1021" class="field-text">config_key</text>
    <text x="1160" y="1021" text-anchor="end" class="uk-badge">UK</text>
    <line x1="900" y1="1028" x2="1180" y2="1028" stroke="#f1f5f9" stroke-width="1"/>

    <rect x="900" y="1028" width="280" height="24" fill="#ffffff"/>
    <text x="920" y="1045" class="field-text">config_value</text>
    <line x1="900" y1="1052" x2="1180" y2="1052" stroke="#f1f5f9" stroke-width="1"/>

    <rect x="900" y="1052" width="280" height="24" fill="#f8fafc"/>
    <text x="920" y="1069" class="field-text">description</text>
    <line x1="900" y1="1076" x2="1180" y2="1076" stroke="#f1f5f9" stroke-width="1"/>

    <rect x="900" y="1076" width="280" height="24" fill="#ffffff"/>
    <text x="920" y="1093" class="field-text">created_at</text>
    <line x1="900" y1="1100" x2="1180" y2="1100" stroke="#f1f5f9" stroke-width="1"/>

    <rect x="900" y="1100" width="280" height="28" fill="#f8fafc"/>
    <text x="920" y="1118" class="field-text">updated_at</text>
  </g>

  <!-- ==================== 图例 ==================== -->
  <g transform="translate(80, 1125)">
    <rect x="0" y="0" width="580" height="50" rx="6" fill="#ffffff" stroke="#e2e8f0" stroke-width="1" opacity="0.9"/>
    <text x="15" y="22" class="legend-text">
      <tspan font-weight="bold" fill="#e74c3c">PK</tspan>
      <tspan> - 主键 &nbsp;&nbsp;</tspan>
      <tspan font-weight="bold" fill="#f39c12">UK</tspan>
      <tspan> - 唯一约束 &nbsp;&nbsp;</tspan>
      <tspan font-weight="bold" fill="#2e86de">FK</tspan>
      <tspan> - 外键 &nbsp;&nbsp;</tspan>
      <tspan fill="#7a8ea8">──→</tspan>
      <tspan> 外键引用方向 &nbsp;&nbsp;</tspan>
      <tspan class="many-label" fill="#7a8ea8">1</tspan>
      <tspan> </tspan>
      <tspan class="many-label" fill="#7a8ea8">多</tspan>
      <tspan> 一对多关系</tspan>
    </text>
    <text x="15" y="40" class="legend-text" fill="#94a3b8">注：所有外键均引用 user(id)，system_config 为独立表无外键关联</text>
  </g>
</svg>